<?xml version="1.0" encoding="utf-8"?>
<!-- Generator: Adobe Illustrator 22.0.1, SVG Export Plug-In . SVG Version: 6.00 Build 0)  -->
<svg version="1.1" id="canpaign-logo" xmlns="http://www.w3.org/2000/svg" xmlns:xlink="http://www.w3.org/1999/xlink" x="0px"
	 y="0px" width="408.8px" height="198.1px" viewBox="0 0 408.8 198.1" style="enable-background:new 0 0 408.8 198.1;"
	 xml:space="preserve">
<style type="text/css">
	.st0{fill:#FFFFFF;}
</style>
<path class="st0" d="M323.7,168.5l12.2,13.8h-52.2l0.9-10.1h19.2l1.5-17.5h33L323.7,168.5z M101.6,159.4l-1.5-17.1h21.2l-0.9-10.6
	H68.1l14.6,13.8l-12.2,13.8H101.6z M131.9,40.6c0-0.1,0.1-0.2,0.2-0.3l5.3-2.8c0.1-0.1,0.2-0.2,0.2-0.3c0-0.1,0-0.2,0-0.4l-1.2-2.3
	c-0.1-0.1-0.2-0.2-0.3-0.2c-0.1,0-0.2,0-0.4,0l-8.7,4.5c-0.1,0.1-0.2,0.2-0.2,0.3c0,0.1,0,0.2,0,0.4l6.1,11.6
	c0.1,0.1,0.1,0.2,0.3,0.2c0.1,0,0.2,0,0.4,0l8.7-4.5c0.1-0.1,0.2-0.1,0.2-0.3c0-0.1,0-0.2,0-0.4l-1.2-2.3c-0.1-0.1-0.1-0.2-0.3-0.2
	c-0.1,0-0.2,0-0.4,0l-5.3,2.8c-0.1,0.1-0.2,0.1-0.4,0c-0.1,0-0.2-0.1-0.3-0.2l-0.3-0.6c-0.1-0.1-0.1-0.2,0-0.4s0.1-0.2,0.2-0.3
	l4.6-2.4c0.1-0.1,0.2-0.2,0.2-0.3c0-0.1,0-0.2,0-0.4l-1.2-2.3c-0.1-0.1-0.2-0.2-0.3-0.2c-0.1,0-0.2,0-0.4,0l-4.6,2.4
	c-0.1,0.1-0.2,0.1-0.4,0c-0.1,0-0.2-0.1-0.3-0.2l-0.4-0.7C131.8,40.8,131.8,40.7,131.9,40.6z M145.7,40c-0.1,0.1-0.2,0.2-0.2,0.3
	l-0.6,2.5c0,0.1,0,0.2,0,0.4c0.1,0.1,0.2,0.2,0.3,0.2c0.4,0.1,0.9,0.3,1.4,0.4c0.5,0.1,1,0.1,1.5,0.1c0.5,0,1.1-0.1,1.7-0.2
	c0.6-0.1,1.2-0.3,1.8-0.5c0.8-0.3,1.4-0.6,2-1c0.6-0.4,1-0.9,1.3-1.4c0.3-0.5,0.5-1.1,0.6-1.7s-0.1-1.3-0.3-2
	c-0.3-0.8-0.7-1.3-1.2-1.7c-0.5-0.4-1-0.7-1.6-0.8c-0.6-0.1-1.1-0.2-1.7-0.2c-0.6,0-1.1,0.1-1.6,0.2c-0.1,0-0.3,0.1-0.6,0.1
	c-0.3,0.1-0.7,0.1-1,0.1s-0.7,0-1,0c-0.3,0-0.5-0.1-0.5-0.3c-0.1-0.2-0.1-0.3,0-0.5s0.2-0.3,0.3-0.4c0.1-0.1,0.3-0.2,0.5-0.3
	c0.2-0.1,0.3-0.1,0.5-0.2c0.4-0.2,1-0.3,1.5-0.3c0.6,0,1.3,0,2,0.2c0.1,0,0.2,0,0.4-0.1c0.1-0.1,0.2-0.2,0.2-0.3l0.6-2.5
	c0-0.1,0-0.2,0-0.4c-0.1-0.1-0.2-0.2-0.3-0.2c-0.9-0.3-1.9-0.4-2.8-0.4c-0.9,0-1.9,0.2-2.9,0.6c-0.6,0.2-1.1,0.5-1.7,0.9
	c-0.6,0.4-1,0.8-1.4,1.3c-0.4,0.5-0.6,1.1-0.7,1.8c-0.1,0.7,0,1.4,0.3,2.2c0.2,0.6,0.5,1,0.8,1.4c0.3,0.3,0.7,0.6,1.1,0.8
	c0.4,0.2,0.8,0.3,1.3,0.4c0.4,0.1,0.9,0.1,1.3,0c0.4,0,0.8-0.1,1.2-0.1c0.4-0.1,0.7-0.1,1-0.2c0.3,0,0.6-0.1,0.9-0.2
	c0.3-0.1,0.5-0.1,0.7-0.1c0.2,0,0.4,0,0.6,0c0.2,0,0.3,0.1,0.3,0.3c0.1,0.3,0.1,0.6-0.2,0.8c-0.2,0.3-0.6,0.5-1.1,0.7
	c-0.5,0.2-1.2,0.3-1.9,0.3c-0.7,0-1.5-0.1-2.3-0.2C145.9,39.9,145.8,39.9,145.7,40z M159.9,34.9c-0.1,0.1-0.2,0.1-0.2,0.3l-0.9,2.4
	c0,0.1,0,0.2,0,0.4c0,0.1,0.1,0.2,0.2,0.3c0.4,0.2,0.9,0.4,1.4,0.5c0.5,0.1,1,0.2,1.5,0.3s1.1,0.1,1.7,0c0.6,0,1.2-0.1,1.8-0.3
	c0.8-0.2,1.5-0.5,2.1-0.8c0.6-0.3,1.1-0.7,1.5-1.2c0.4-0.5,0.6-1,0.7-1.6c0.1-0.6,0.1-1.3-0.1-2c-0.2-0.8-0.5-1.4-1-1.9
	c-0.5-0.4-1-0.8-1.5-1c-0.6-0.2-1.1-0.3-1.7-0.3c-0.6,0-1.1,0-1.6,0c-0.1,0-0.3,0-0.6,0.1s-0.7,0-1,0c-0.4,0-0.7,0-1-0.1
	c-0.3-0.1-0.5-0.2-0.5-0.4c0-0.2,0-0.3,0-0.5s0.2-0.2,0.3-0.3c0.1-0.1,0.3-0.2,0.5-0.2c0.2-0.1,0.3-0.1,0.5-0.1
	c0.5-0.1,1-0.2,1.6-0.2c0.6,0,1.3,0.1,2,0.4c0.1,0,0.2,0,0.4,0c0.1-0.1,0.2-0.1,0.2-0.3l0.9-2.4c0-0.1,0-0.2,0-0.4
	c0-0.1-0.1-0.2-0.3-0.3c-0.9-0.4-1.8-0.6-2.7-0.7s-1.9,0-2.9,0.3c-0.6,0.2-1.2,0.4-1.8,0.7c-0.6,0.3-1.1,0.7-1.5,1.1s-0.7,1-0.9,1.7
	c-0.2,0.6-0.2,1.4,0.1,2.2c0.2,0.6,0.4,1.1,0.7,1.4c0.3,0.4,0.6,0.7,1,0.9c0.4,0.2,0.8,0.4,1.2,0.5c0.4,0.1,0.9,0.2,1.3,0.2
	c0.4,0,0.8,0,1.2,0s0.7-0.1,1-0.1c0.3,0,0.6,0,0.9-0.1s0.5,0,0.8,0c0.2,0,0.4,0,0.6,0.1c0.1,0.1,0.2,0.2,0.3,0.3
	c0.1,0.3,0,0.6-0.2,0.8c-0.2,0.2-0.6,0.4-1.2,0.6c-0.6,0.2-1.2,0.2-1.9,0.1c-0.7-0.1-1.5-0.2-2.3-0.5
	C160.2,34.8,160,34.8,159.9,34.9z M176.4,25.5c0.1-0.1,0.2-0.2,0.3-0.2l5.9-0.9c0.1,0,0.2-0.1,0.3-0.2s0.1-0.2,0.1-0.3l-0.4-2.6
	c0-0.1-0.1-0.2-0.2-0.3c-0.1-0.1-0.2-0.1-0.3-0.1l-9.7,1.5c-0.1,0-0.2,0.1-0.3,0.2c-0.1,0.1-0.1,0.2-0.1,0.3l2.1,13
	c0,0.1,0.1,0.2,0.2,0.3c0.1,0.1,0.2,0.1,0.3,0.1l9.7-1.5c0.1,0,0.2-0.1,0.3-0.2c0.1-0.1,0.1-0.2,0.1-0.3l-0.4-2.6
	c0-0.1-0.1-0.2-0.2-0.3c-0.1-0.1-0.2-0.1-0.3-0.1l-5.9,0.9c-0.1,0-0.2,0-0.3-0.1c-0.1-0.1-0.2-0.2-0.2-0.3l-0.1-0.7
	c0-0.1,0-0.2,0.1-0.3c0.1-0.1,0.2-0.2,0.3-0.2l5.1-0.8c0.1,0,0.2-0.1,0.3-0.2c0.1-0.1,0.1-0.2,0.1-0.3l-0.4-2.6
	c0-0.1-0.1-0.2-0.2-0.3c-0.1-0.1-0.2-0.1-0.3-0.1L177,27c-0.1,0-0.2,0-0.3-0.1c-0.1-0.1-0.2-0.2-0.2-0.3l-0.1-0.8
	C176.3,25.7,176.3,25.6,176.4,25.5z M201,19.6c-0.1-0.1-0.2-0.1-0.3-0.1l-2.8,0.1c-0.1,0-0.2,0.1-0.3,0.2c-0.1,0.1-0.1,0.2-0.1,0.3
	l0.3,6.9c0,0.1,0,0.2-0.1,0.2c-0.1,0-0.2,0-0.2-0.1l-5.3-6.8c-0.1-0.1-0.2-0.2-0.3-0.2c-0.1-0.1-0.3-0.1-0.4-0.1l-2.9,0.1
	c-0.1,0-0.2,0.1-0.3,0.2c-0.1,0.1-0.1,0.2-0.1,0.3l0.6,13.1c0,0.1,0.1,0.2,0.2,0.3c0.1,0.1,0.2,0.1,0.3,0.1L192,34
	c0.1,0,0.2-0.1,0.3-0.2c0.1-0.1,0.1-0.2,0.1-0.3l-0.3-6.9c0-0.1,0-0.2,0.1-0.2c0.1,0,0.2,0,0.2,0.1l5.3,6.8c0.1,0.1,0.2,0.2,0.3,0.3
	c0.1,0.1,0.3,0.1,0.4,0.1l2.8-0.1c0.1,0,0.2-0.1,0.3-0.2s0.1-0.2,0.1-0.3l-0.6-13.1C201.2,19.8,201.1,19.7,201,19.6z M216.6,23.4
	c0.1-0.1,0.1-0.2,0.1-0.3l0.1-2.6c0-0.1,0-0.2-0.1-0.3c-0.1-0.1-0.2-0.1-0.3-0.2l-10.1-0.5c-0.1,0-0.2,0-0.3,0.1s-0.1,0.2-0.1,0.3
	l-0.1,2.6c0,0.1,0,0.2,0.1,0.3c0.1,0.1,0.2,0.1,0.3,0.1l2.7,0.1c0.1,0,0.2,0.1,0.3,0.2c0.1,0.1,0.1,0.2,0.1,0.3l-0.5,9.6
	c0,0.1,0,0.2,0.1,0.3s0.2,0.1,0.3,0.2l2.9,0.1c0.1,0,0.3,0,0.3-0.1c0.1-0.1,0.1-0.2,0.1-0.3l0.5-9.6c0-0.1,0.1-0.2,0.1-0.3
	s0.2-0.1,0.3-0.1l2.7,0.1C216.4,23.5,216.5,23.5,216.6,23.4z M223.1,34.8c0.1-0.1,0.2-0.2,0.2-0.3l1.6-13c0-0.1,0-0.2-0.1-0.3
	c-0.1-0.1-0.2-0.2-0.3-0.2l-2.9-0.3c-0.1,0-0.3,0-0.3,0.1c-0.1,0.1-0.1,0.2-0.2,0.3l-1.6,13c0,0.1,0,0.2,0.1,0.3
	c0.1,0.1,0.2,0.2,0.3,0.2l2.9,0.3C222.9,34.9,223,34.9,223.1,34.8z M226.2,34.5c-0.1,0.1-0.1,0.2-0.1,0.3c0,0.1,0,0.1,0,0.2
	c0,0.1,0.1,0.1,0.1,0.1c0.1,0,0.1,0.1,0.2,0.1l3.2,0.7c0.1,0,0.3,0,0.4,0c0.1-0.1,0.2-0.1,0.3-0.2l0.8-1c0.1-0.1,0.2-0.2,0.3-0.2
	c0.1-0.1,0.3-0.1,0.4,0l4,0.8c0.1,0,0.2,0.1,0.3,0.2c0.1,0.1,0.2,0.2,0.2,0.3l0.3,1.2c0,0.1,0.1,0.2,0.2,0.3
	c0.1,0.1,0.2,0.2,0.4,0.2l3.2,0.7c0.2,0,0.3,0,0.4-0.1c0.1-0.1,0.1-0.2,0.1-0.4l-2.8-13.9c0-0.1-0.1-0.2-0.2-0.3
	c-0.1-0.1-0.2-0.2-0.3-0.2l-2.6-0.6c-0.1,0-0.3,0-0.4,0c-0.1,0.1-0.2,0.1-0.3,0.2L226.2,34.5z M233.4,31.2c0-0.1,0-0.2,0.1-0.3
	l1.4-2.1c0.1-0.1,0.1-0.1,0.2-0.1c0.1,0,0.1,0.1,0.1,0.2c0.1,0.4,0.2,0.8,0.2,1.3c0.1,0.5,0.2,0.9,0.2,1.2c0,0.1,0,0.2-0.1,0.3
	s-0.2,0.1-0.3,0.1l-1.7-0.4C233.6,31.3,233.5,31.3,233.4,31.2z M254.1,38.9c-0.1-0.1-0.1-0.2-0.3-0.2l-5.5-1.8
	c-0.1,0-0.2-0.1-0.3-0.2c-0.1-0.1-0.1-0.2,0-0.3l2.9-9.1c0-0.1,0-0.2,0-0.4c-0.1-0.1-0.1-0.2-0.3-0.2l-2.7-0.9c-0.1,0-0.3,0-0.4,0
	s-0.2,0.2-0.2,0.3l-4,12.5c0,0.1,0,0.2,0,0.3c0.1,0.1,0.1,0.2,0.3,0.2l9.1,2.9c0.1,0,0.2,0,0.4,0c0.1-0.1,0.2-0.1,0.2-0.3l0.8-2.5
	C254.2,39.1,254.2,39,254.1,38.9z M266.8,44.3c0-0.1-0.1-0.2-0.2-0.3l-5.3-2.3c-0.1-0.1-0.2-0.1-0.3-0.3c0-0.1,0-0.2,0-0.3l3.8-8.8
	c0.1-0.1,0.1-0.2,0-0.4c0-0.1-0.1-0.2-0.2-0.3l-2.6-1.2c-0.1-0.1-0.2-0.1-0.4,0s-0.2,0.1-0.2,0.2l-5.3,12c-0.1,0.1-0.1,0.2,0,0.3
	s0.1,0.2,0.3,0.3l8.8,3.8c0.1,0.1,0.2,0.1,0.4,0c0.1,0,0.2-0.1,0.3-0.2l1-2.4C266.8,44.5,266.8,44.4,266.8,44.3z M283.6,41.6
	c0-0.1-0.1-0.2-0.2-0.3l-3-1.7c-0.1-0.1-0.2-0.1-0.4-0.1c-0.2,0-0.3,0-0.4,0.1l-4,2.5c-0.1,0.1-0.2,0.1-0.3,0
	c-0.1,0-0.1-0.1-0.1-0.2l-0.1-4.7c0-0.1,0-0.3-0.1-0.4s-0.2-0.2-0.3-0.3l-3-1.7c-0.1-0.1-0.2,0-0.3,0c-0.1,0.1-0.1,0.2-0.1,0.3
	c0,1.6,0.1,3.1,0.2,4.6s0.1,3,0.2,4.5c0,0.1,0,0.3-0.1,0.4s-0.1,0.3-0.2,0.4l-2.1,3.8c-0.1,0.1-0.1,0.2,0,0.4c0,0.1,0.1,0.2,0.2,0.3
	L272,51c0.1,0.1,0.2,0.1,0.3,0c0.1,0,0.2-0.1,0.3-0.2l2.1-3.8c0.1-0.1,0.2-0.2,0.3-0.3c0.1-0.1,0.2-0.2,0.4-0.3l8-4.5
	C283.6,41.8,283.7,41.7,283.6,41.6z M169,56.5c0.7-0.6,1.3-1.2,1.7-1.9c0.4-0.7,0.7-1.5,0.9-2.4s0.1-1.7-0.1-2.6
	c-0.1-0.3-0.2-0.6-0.3-0.9c-0.1-0.3-0.2-0.5-0.3-0.7c-0.1-0.1-0.1-0.2-0.3-0.3c-0.1,0-0.2-0.1-0.4,0l-6.3,2.1
	c-0.1,0-0.2,0.1-0.3,0.2c-0.1,0.1-0.1,0.2,0,0.4l0.7,2.2c0,0.1,0.1,0.2,0.2,0.3c0.1,0.1,0.2,0.1,0.4,0l2.1-0.7c0.1,0,0.2,0,0.3,0
	c0.1,0.1,0.1,0.2,0.1,0.3c-0.1,0.5-0.4,0.9-0.8,1.2c-0.4,0.3-0.8,0.6-1.3,0.7s-0.9,0.2-1.4,0.2c-0.5-0.1-0.9-0.2-1.3-0.4
	c-0.4-0.2-0.8-0.5-1.1-0.8c-0.3-0.4-0.5-0.8-0.7-1.2c-0.1-0.4-0.2-0.9-0.2-1.4s0.2-0.9,0.4-1.3c0.2-0.4,0.5-0.8,0.8-1.1
	c0.3-0.3,0.7-0.6,1.2-0.7c0.6-0.2,1.2-0.3,1.8-0.1c0.6,0.1,1.1,0.4,1.6,0.7c0.1,0.1,0.2,0.1,0.4,0.1c0.1,0,0.2-0.1,0.3-0.2l1.7-2.1
	c0.1-0.1,0.1-0.2,0.1-0.3s-0.1-0.2-0.2-0.3c-0.9-0.8-2-1.2-3.2-1.5c-1.2-0.2-2.4-0.1-3.8,0.3c-1,0.3-1.8,0.8-2.6,1.5
	c-0.7,0.6-1.3,1.4-1.7,2.2c-0.4,0.8-0.7,1.7-0.8,2.7c-0.1,1,0,1.9,0.3,2.9c0.3,0.9,0.8,1.8,1.4,2.5c0.6,0.7,1.4,1.3,2.2,1.7
	c0.8,0.4,1.8,0.7,2.7,0.7c1,0.1,1.9,0,2.9-0.4C167.5,57.5,168.3,57,169,56.5z M178.9,43.5c0.1-0.1,0.2-0.2,0.3-0.2l5.9-1
	c0.1,0,0.2-0.1,0.3-0.2c0.1-0.1,0.1-0.2,0.1-0.3l-0.5-2.6c0-0.1-0.1-0.2-0.2-0.3c-0.1-0.1-0.2-0.1-0.3-0.1l-9.6,1.7
	c-0.1,0-0.2,0.1-0.3,0.2c-0.1,0.1-0.1,0.2-0.1,0.3l2.3,12.9c0,0.1,0.1,0.2,0.2,0.3c0.1,0.1,0.2,0.1,0.3,0.1l9.6-1.7
	c0.1,0,0.2-0.1,0.3-0.2c0.1-0.1,0.1-0.2,0.1-0.3l-0.5-2.6c0-0.1-0.1-0.2-0.2-0.3c-0.1-0.1-0.2-0.1-0.3-0.1l-5.9,1
	c-0.1,0-0.2,0-0.3-0.1c-0.1-0.1-0.2-0.2-0.2-0.3l-0.1-0.7c0-0.1,0-0.2,0.1-0.3c0.1-0.1,0.2-0.2,0.3-0.2l5.1-0.9
	c0.1,0,0.2-0.1,0.3-0.2c0.1-0.1,0.1-0.2,0.1-0.3l-0.5-2.6c0-0.1-0.1-0.2-0.2-0.3s-0.2-0.1-0.3-0.1l-5.1,0.9c-0.1,0-0.2,0-0.3-0.1
	c-0.1-0.1-0.2-0.2-0.2-0.3l-0.1-0.8C178.8,43.8,178.9,43.7,178.9,43.5z M189.8,51.5c0,0.1-0.1,0.2,0,0.3c0,0.1,0,0.1,0.1,0.2
	c0,0,0.1,0.1,0.2,0.1s0.1,0,0.2,0l3.3-0.1c0.1,0,0.3-0.1,0.4-0.1c0.1-0.1,0.2-0.2,0.2-0.3l0.5-1.2c0-0.1,0.1-0.2,0.2-0.3
	c0.1-0.1,0.2-0.1,0.4-0.1l4-0.2c0.1,0,0.3,0,0.4,0.1c0.1,0.1,0.2,0.2,0.3,0.3l0.6,1.1c0.1,0.1,0.2,0.2,0.3,0.3
	c0.1,0.1,0.3,0.1,0.4,0.1l3.3-0.1c0.2,0,0.3-0.1,0.4-0.2c0.1-0.1,0.1-0.3,0-0.4l-6.2-12.8c-0.1-0.1-0.1-0.2-0.3-0.3
	c-0.1-0.1-0.3-0.1-0.4-0.1l-2.7,0.1c-0.1,0-0.3,0.1-0.4,0.1c-0.1,0.1-0.2,0.2-0.2,0.3L189.8,51.5z M196,46.5c-0.1-0.1-0.1-0.2,0-0.3
	l0.9-2.4c0-0.1,0.1-0.2,0.2-0.2c0.1,0,0.1,0.1,0.2,0.2c0.2,0.4,0.4,0.8,0.6,1.2c0.2,0.4,0.4,0.8,0.5,1.1c0.1,0.1,0.1,0.2,0,0.3
	s-0.1,0.1-0.3,0.1l-1.7,0.1C196.1,46.6,196,46.6,196,46.5z M210.7,51.7c0.1-0.1,0.2-0.2,0.2-0.3l0.2-3.1c0-0.1,0.1-0.2,0.2-0.3
	s0.2-0.1,0.3-0.1l0.4,0c0.1,0,0.3,0.1,0.4,0.1c0.1,0.1,0.2,0.2,0.3,0.3c0.3,0.6,0.7,1.2,1.1,1.8c0.4,0.6,0.7,1.2,1.1,1.7
	c0.1,0.1,0.2,0.2,0.3,0.3c0.1,0.1,0.3,0.1,0.4,0.1l3.6,0.3c0.1,0,0.2,0,0.3-0.2s0-0.2,0-0.3c-0.4-0.6-0.8-1.3-1.3-2
	c-0.5-0.7-0.9-1.4-1.4-2.1c-0.1-0.1-0.1-0.2,0-0.3c0-0.1,0.1-0.2,0.2-0.3c0.3-0.2,0.6-0.4,0.9-0.7c0.3-0.3,0.5-0.6,0.7-0.9
	c0.2-0.3,0.4-0.7,0.5-1.1s0.2-0.8,0.2-1.2c0.1-0.7,0-1.4-0.2-2.1c-0.2-0.6-0.5-1.2-0.9-1.7c-0.4-0.5-0.9-0.9-1.5-1.2s-1.3-0.5-2-0.5
	l-6-0.5c-0.1,0-0.2,0-0.3,0.1s-0.1,0.2-0.2,0.3l-1,13.1c0,0.1,0,0.2,0.1,0.3c0.1,0.1,0.2,0.2,0.3,0.2l2.9,0.2
	C210.5,51.9,210.6,51.8,210.7,51.7z M211.6,44.2c-0.1-0.1-0.1-0.2-0.1-0.3l0.2-2c0-0.1,0.1-0.2,0.2-0.3c0.1-0.1,0.2-0.1,0.3-0.1
	l2,0.2c0.3,0,0.5,0.1,0.7,0.2c0.2,0.1,0.3,0.3,0.4,0.4c0.1,0.2,0.2,0.3,0.2,0.5c0,0.2,0,0.3,0,0.5c0,0.2-0.1,0.5-0.2,0.6
	c-0.1,0.2-0.2,0.3-0.4,0.4s-0.3,0.2-0.5,0.2c-0.2,0-0.3,0.1-0.5,0l-2-0.2C211.8,44.4,211.7,44.3,211.6,44.2z M228.3,43.7
	c0.1-0.1,0.2-0.1,0.3-0.1l5.8,1.2c0.1,0,0.2,0,0.3-0.1c0.1-0.1,0.2-0.2,0.2-0.3l0.5-2.6c0-0.1,0-0.2-0.1-0.3
	c-0.1-0.1-0.2-0.2-0.3-0.2l-9.6-2c-0.1,0-0.2,0-0.3,0.1c-0.1,0.1-0.2,0.2-0.2,0.3l-2.7,12.9c0,0.1,0,0.2,0.1,0.3
	c0.1,0.1,0.2,0.2,0.3,0.2l9.6,2c0.1,0,0.2,0,0.3-0.1s0.2-0.2,0.2-0.3l0.5-2.6c0-0.1,0-0.2-0.1-0.3s-0.2-0.2-0.3-0.2l-5.8-1.2
	c-0.1,0-0.2-0.1-0.3-0.2c-0.1-0.1-0.1-0.2-0.1-0.3l0.2-0.7c0-0.1,0.1-0.2,0.2-0.3c0.1-0.1,0.2-0.1,0.3-0.1l5.1,1.1
	c0.1,0,0.2,0,0.3-0.1c0.1-0.1,0.2-0.2,0.2-0.3l0.5-2.6c0-0.1,0-0.2-0.1-0.3c-0.1-0.1-0.2-0.2-0.3-0.2l-5.1-1.1
	c-0.1,0-0.2-0.1-0.3-0.2c-0.1-0.1-0.1-0.2-0.1-0.3l0.2-0.8C228.1,43.9,228.1,43.8,228.3,43.7z M236.7,56.2c0.1,0.1,0.1,0.2,0.3,0.2
	l4.9,1.8c0.9,0.3,1.8,0.5,2.7,0.5c0.9,0,1.7-0.2,2.5-0.5c0.9-0.4,1.6-0.9,2.3-1.6s1.2-1.6,1.5-2.6c0.4-1,0.5-2,0.5-3
	c0-1-0.3-1.8-0.7-2.7c-0.8-1.5-2.1-2.7-4-3.4l-4.9-1.8c-0.1,0-0.2,0-0.4,0c-0.1,0.1-0.2,0.1-0.2,0.3l-4.5,12.3
	C236.7,55.9,236.7,56,236.7,56.2z M241.5,54.1c-0.1-0.1-0.1-0.2,0-0.4l2.1-5.7c0-0.1,0.1-0.2,0.2-0.3c0.1-0.1,0.2-0.1,0.4,0l1.4,0.5
	c0.3,0.1,0.7,0.3,1,0.5c0.3,0.2,0.6,0.5,0.8,0.8c0.2,0.3,0.3,0.8,0.4,1.3c0,0.5-0.1,1.1-0.3,1.8c-0.3,0.7-0.5,1.2-0.9,1.6
	c-0.3,0.4-0.7,0.6-1.1,0.7c-0.4,0.1-0.8,0.2-1.1,0.1c-0.4,0-0.8-0.1-1.1-0.3l-1.4-0.5C241.6,54.3,241.5,54.3,241.5,54.1z
	 M150.1,157.3c-0.1-0.3-0.3-0.7-0.4-1c0-0.1-0.1-0.1-0.1-0.1c-0.1,0-0.1,0-0.1,0.1l-0.8,1.9c0,0.1,0,0.2,0,0.2
	c0,0.1,0.1,0.1,0.2,0.1h1.4c0.1,0,0.2,0,0.2-0.1c0-0.1,0-0.1,0-0.2C150.4,158,150.3,157.7,150.1,157.3z M206,155.8h1.4
	c0.2,0,0.4-0.1,0.5-0.2c0.1-0.2,0.2-0.3,0.2-0.5c0-0.2-0.1-0.3-0.2-0.5c-0.1-0.1-0.3-0.2-0.4-0.2H206c-0.1,0-0.2,0-0.3,0.1
	c-0.1,0.1-0.1,0.2-0.1,0.3v0.7c0,0.1,0,0.2,0.1,0.3S205.9,155.8,206,155.8z M220.7,155.1c-0.3-0.3-0.6-0.5-0.9-0.6
	c-0.3-0.2-0.7-0.2-1.1-0.2c-0.4,0-0.7,0.1-1.1,0.2c-0.3,0.2-0.6,0.4-0.9,0.6c-0.3,0.3-0.4,0.6-0.6,0.9c-0.1,0.4-0.2,0.7-0.2,1.1
	c0,0.4,0.1,0.8,0.2,1.1c0.1,0.3,0.3,0.7,0.6,0.9c0.3,0.3,0.5,0.5,0.9,0.6c0.3,0.2,0.7,0.2,1.1,0.2c0.4,0,0.7-0.1,1.1-0.2
	c0.3-0.2,0.6-0.4,0.9-0.6c0.3-0.3,0.5-0.6,0.6-0.9c0.1-0.3,0.2-0.7,0.2-1.1c0-0.4-0.1-0.7-0.2-1.1
	C221.2,155.7,221,155.4,220.7,155.1z M303.1,155.8l-1.3,14.2H104.7l-2.3-25.5h185.7c1,2.9,2.8,6.5,5.9,8.3l0,0
	C296.7,154.4,299.7,155.4,303.1,155.8z M143,161.1c0.4-0.4,0.7-0.8,1-1.3c0.1-0.1,0.1-0.2,0-0.3c0-0.1-0.1-0.2-0.2-0.2l-2.2-0.9
	c-0.1,0-0.2,0-0.3,0c-0.1,0-0.2,0.1-0.2,0.2c-0.3,0.4-0.6,0.8-1.1,1.1c-0.5,0.3-1,0.4-1.5,0.4c-0.4,0-0.8-0.1-1.1-0.2
	c-0.3-0.2-0.6-0.4-0.9-0.6c-0.3-0.3-0.5-0.6-0.6-0.9c-0.1-0.4-0.2-0.7-0.2-1.1c0-0.4,0.1-0.8,0.2-1.1c0.1-0.4,0.3-0.7,0.6-1
	s0.6-0.5,0.9-0.7c0.3-0.2,0.7-0.2,1.1-0.2c0.6,0,1.1,0.1,1.5,0.4c0.4,0.3,0.8,0.6,1.1,1.1c0.1,0.1,0.1,0.1,0.2,0.2
	c0.1,0,0.2,0,0.3,0l2.2-0.9c0.1,0,0.2-0.1,0.2-0.2c0-0.1,0-0.2,0-0.3c-0.3-0.5-0.6-0.9-1-1.3s-0.8-0.7-1.2-1
	c-0.4-0.3-0.9-0.5-1.5-0.6s-1.2-0.2-1.8-0.2c-0.8,0-1.6,0.2-2.3,0.5s-1.3,0.7-1.9,1.2c-0.5,0.5-1,1.1-1.3,1.9
	c-0.3,0.7-0.5,1.5-0.5,2.3s0.2,1.6,0.5,2.3c0.3,0.7,0.7,1.3,1.3,1.9c0.5,0.5,1.2,0.9,1.9,1.2c0.7,0.3,1.5,0.5,2.3,0.5
	c0.7,0,1.3-0.1,1.8-0.2c0.5-0.2,1-0.4,1.5-0.6S142.7,161.5,143,161.1z M155.7,162.4l-4.5-10.5c0-0.1-0.1-0.2-0.2-0.2
	c-0.1-0.1-0.2-0.1-0.3-0.1h-2.2c-0.1,0-0.2,0-0.3,0.1c-0.1,0.1-0.2,0.1-0.2,0.2l-4.5,10.4c0,0.1-0.1,0.2,0,0.2c0,0.1,0,0.1,0.1,0.2
	s0.1,0.1,0.1,0.1c0.1,0,0.1,0,0.2,0h2.7c0.1,0,0.2,0,0.3-0.1c0.1-0.1,0.2-0.1,0.2-0.2l0.4-0.9c0-0.1,0.1-0.2,0.2-0.2
	c0.1-0.1,0.2-0.1,0.3-0.1h3.3c0.1,0,0.2,0,0.3,0.1c0.1,0.1,0.2,0.1,0.2,0.2l0.4,0.9c0.1,0.1,0.1,0.2,0.2,0.2
	c0.1,0.1,0.2,0.1,0.3,0.1h2.6c0.2,0,0.3-0.1,0.3-0.2C155.7,162.6,155.8,162.5,155.7,162.4z M167.4,151.9c0-0.1,0-0.2-0.1-0.3
	c-0.1-0.1-0.2-0.1-0.3-0.1h-2.3c-0.1,0-0.2,0-0.3,0.1c-0.1,0.1-0.1,0.2-0.1,0.3v5.5c0,0.1,0,0.2-0.1,0.2c-0.1,0-0.1,0-0.2-0.1
	l-4-5.7c-0.1-0.1-0.1-0.2-0.3-0.2s-0.2-0.1-0.3-0.1h-2.3c-0.1,0-0.2,0-0.3,0.1c-0.1,0.1-0.1,0.2-0.1,0.3v10.5c0,0.1,0,0.2,0.1,0.3
	c0.1,0.1,0.2,0.1,0.3,0.1h2.3c0.1,0,0.2,0,0.3-0.1c0.1-0.1,0.1-0.2,0.1-0.3v-5.5c0-0.1,0-0.2,0.1-0.2c0.1,0,0.1,0,0.2,0.1l4,5.7
	c0.1,0.1,0.1,0.2,0.3,0.2c0.1,0.1,0.2,0.1,0.3,0.1h2.3c0.1,0,0.2,0,0.3-0.1c0.1-0.1,0.1-0.2,0.1-0.3V151.9z M178.6,159.5
	c0-0.7-0.1-1.2-0.4-1.6c-0.3-0.4-0.6-0.8-1-1.1c-0.4-0.3-0.8-0.5-1.2-0.6s-0.8-0.2-1.2-0.3c-0.1,0-0.2,0-0.5-0.1
	c-0.3,0-0.5-0.1-0.8-0.2s-0.5-0.2-0.7-0.3s-0.3-0.2-0.3-0.4s0-0.3,0.1-0.3c0.1-0.1,0.2-0.1,0.3-0.2s0.3-0.1,0.4-0.1
	c0.1,0,0.3,0,0.4,0c0.4,0,0.8,0.1,1.2,0.2s0.9,0.4,1.5,0.7c0.1,0.1,0.2,0.1,0.3,0.1c0.1,0,0.2-0.1,0.2-0.2l1.2-1.7
	c0.1-0.1,0.1-0.2,0.1-0.3c0-0.1-0.1-0.2-0.1-0.3c-0.6-0.5-1.3-0.9-2-1.1c-0.7-0.3-1.5-0.4-2.3-0.4c-0.5,0-1,0.1-1.5,0.2
	c-0.5,0.1-1,0.3-1.4,0.6c-0.4,0.3-0.8,0.6-1.1,1.1c-0.3,0.5-0.4,1-0.4,1.8c0,0.5,0.1,0.9,0.2,1.3c0.1,0.4,0.3,0.7,0.6,0.9
	c0.2,0.3,0.5,0.5,0.8,0.6s0.6,0.3,0.9,0.4c0.3,0.1,0.6,0.2,0.9,0.2c0.3,0.1,0.6,0.1,0.8,0.1c0.2,0.1,0.5,0.1,0.7,0.1
	c0.2,0,0.4,0.1,0.6,0.1c0.2,0.1,0.3,0.1,0.4,0.2s0.2,0.2,0.2,0.3c0,0.3-0.1,0.5-0.4,0.6c-0.2,0.1-0.6,0.2-1,0.2
	c-0.5,0-1-0.1-1.5-0.3c-0.5-0.2-1.1-0.5-1.6-0.8c-0.1-0.1-0.2-0.1-0.3,0s-0.2,0.1-0.2,0.2l-1.2,1.7c-0.1,0.1-0.1,0.2-0.1,0.3
	c0,0.1,0.1,0.2,0.1,0.3c0.3,0.2,0.6,0.5,0.9,0.7c0.3,0.2,0.7,0.4,1.1,0.5s0.8,0.3,1.3,0.4c0.5,0.1,1,0.1,1.5,0.1
	c0.7,0,1.3-0.1,1.8-0.2s1-0.4,1.4-0.6c0.4-0.3,0.7-0.7,0.9-1.1S178.6,160.1,178.6,159.5z M191.1,155.2c0,0,0-0.1,0-0.1
	c0,0-0.1-0.1-0.1-0.1h-1.3c-0.1,0-0.1,0-0.2,0.1c0,0-0.1,0.1-0.1,0.1l-1.4,3.2c0,0-0.1,0.1-0.1,0.1c0,0-0.1,0-0.1-0.1l-1.4-3.2
	c0,0-0.1-0.1-0.1-0.1c-0.1,0-0.1-0.1-0.2-0.1h-1.3c-0.1,0-0.1,0-0.1,0.1c0,0,0,0.1,0,0.2l2.4,5.4c0,0,0.1,0.1,0.1,0.1
	c0.1,0,0.1,0.1,0.2,0.1h1.1c0.1,0,0.1,0,0.2-0.1c0.1,0,0.1-0.1,0.1-0.1L191.1,155.2z M196.1,159.1c0-0.3-0.1-0.6-0.2-0.9
	c-0.1-0.2-0.3-0.4-0.5-0.6c-0.2-0.1-0.4-0.2-0.6-0.3c-0.2-0.1-0.4-0.1-0.6-0.2c0,0-0.1,0-0.3,0c-0.1,0-0.3-0.1-0.4-0.1
	c-0.1,0-0.3-0.1-0.4-0.2c-0.1-0.1-0.2-0.1-0.2-0.2c0-0.1,0-0.1,0.1-0.2c0,0,0.1-0.1,0.2-0.1s0.1,0,0.2,0s0.1,0,0.2,0
	c0.2,0,0.4,0,0.6,0.1c0.2,0.1,0.5,0.2,0.8,0.4c0,0,0.1,0,0.1,0c0.1,0,0.1,0,0.1-0.1l0.6-0.9c0,0,0-0.1,0-0.1c0-0.1,0-0.1-0.1-0.1
	c-0.3-0.3-0.7-0.4-1-0.6s-0.8-0.2-1.2-0.2c-0.3,0-0.5,0-0.8,0.1c-0.3,0.1-0.5,0.2-0.7,0.3c-0.2,0.1-0.4,0.3-0.5,0.6
	c-0.1,0.2-0.2,0.5-0.2,0.9c0,0.3,0,0.5,0.1,0.7s0.2,0.3,0.3,0.5c0.1,0.1,0.3,0.2,0.4,0.3c0.2,0.1,0.3,0.2,0.5,0.2
	c0.2,0.1,0.3,0.1,0.5,0.1s0.3,0.1,0.4,0.1c0.1,0,0.2,0,0.4,0.1c0.1,0,0.2,0,0.3,0.1c0.1,0,0.2,0.1,0.2,0.1c0.1,0,0.1,0.1,0.1,0.2
	c0,0.1-0.1,0.2-0.2,0.3c-0.1,0.1-0.3,0.1-0.5,0.1c-0.2,0-0.5-0.1-0.8-0.2c-0.3-0.1-0.6-0.3-0.9-0.4c0,0-0.1,0-0.1,0
	c-0.1,0-0.1,0-0.1,0.1l-0.6,0.9c0,0,0,0.1,0,0.1s0,0.1,0.1,0.1c0.1,0.1,0.3,0.2,0.5,0.3c0.2,0.1,0.4,0.2,0.6,0.3s0.4,0.1,0.7,0.2
	c0.2,0,0.5,0.1,0.8,0.1c0.3,0,0.7,0,0.9-0.1c0.3-0.1,0.5-0.2,0.7-0.3s0.4-0.3,0.5-0.6C196,159.7,196.1,159.4,196.1,159.1z
	 M211.7,159.4c0-0.3,0-0.6-0.1-0.9c-0.1-0.3-0.2-0.5-0.3-0.7s-0.3-0.4-0.5-0.5s-0.3-0.2-0.5-0.3c-0.2-0.1-0.2-0.2,0-0.4
	c0.3-0.2,0.5-0.5,0.7-0.8c0.2-0.3,0.3-0.7,0.3-1.2c0-0.6-0.1-1.1-0.3-1.5c-0.2-0.4-0.5-0.7-0.8-1c-0.3-0.2-0.7-0.4-1.2-0.5
	c-0.5-0.1-0.9-0.2-1.4-0.2H203c-0.1,0-0.2,0-0.3,0.1c-0.1,0.1-0.1,0.2-0.1,0.3v10.5c0,0.1,0,0.2,0.1,0.3c0.1,0.1,0.2,0.1,0.3,0.1
	h4.9c0.5,0,1-0.1,1.5-0.2c0.5-0.1,0.9-0.3,1.2-0.6c0.4-0.3,0.6-0.6,0.9-1C211.6,160.6,211.7,160.1,211.7,159.4z M224.6,157.2
	c0-0.8-0.2-1.6-0.5-2.3c-0.3-0.7-0.7-1.3-1.3-1.9c-0.5-0.5-1.1-0.9-1.9-1.3c-0.7-0.3-1.5-0.5-2.3-0.5s-1.6,0.2-2.3,0.5
	c-0.7,0.3-1.3,0.7-1.9,1.3c-0.5,0.5-0.9,1.1-1.2,1.9c-0.3,0.7-0.5,1.5-0.5,2.3s0.2,1.6,0.5,2.3c0.3,0.7,0.7,1.3,1.2,1.9
	c0.5,0.5,1.1,0.9,1.9,1.3c0.7,0.3,1.5,0.5,2.3,0.5s1.6-0.2,2.3-0.5c0.7-0.3,1.3-0.7,1.9-1.3c0.5-0.5,0.9-1.1,1.3-1.9
	C224.4,158.7,224.6,158,224.6,157.2z M233.8,151.9c0-0.1,0-0.2-0.1-0.3c-0.1-0.1-0.2-0.1-0.3-0.1h-8.1c-0.1,0-0.2,0-0.3,0.1
	c-0.1,0.1-0.1,0.2-0.1,0.3v2.1c0,0.1,0,0.2,0.1,0.3c0.1,0.1,0.2,0.1,0.3,0.1h2.2c0.1,0,0.2,0,0.3,0.1c0.1,0.1,0.1,0.2,0.1,0.3v7.7
	c0,0.1,0,0.2,0.1,0.3c0.1,0.1,0.2,0.1,0.3,0.1h2.3c0.1,0,0.2,0,0.3-0.1c0.1-0.1,0.1-0.2,0.1-0.3v-7.7c0-0.1,0-0.2,0.1-0.3
	c0.1-0.1,0.2-0.1,0.3-0.1h2.2c0.1,0,0.2,0,0.3-0.1c0.1-0.1,0.1-0.2,0.1-0.3V151.9z M243.3,151.9c0-0.1,0-0.2-0.1-0.3
	c-0.1-0.1-0.2-0.1-0.3-0.1h-8.1c-0.1,0-0.2,0-0.3,0.1c-0.1,0.1-0.1,0.2-0.1,0.3v2.1c0,0.1,0,0.2,0.1,0.3c0.1,0.1,0.2,0.1,0.3,0.1
	h2.2c0.1,0,0.2,0,0.3,0.1c0.1,0.1,0.1,0.2,0.1,0.3v7.7c0,0.1,0,0.2,0.1,0.3c0.1,0.1,0.2,0.1,0.3,0.1h2.3c0.1,0,0.2,0,0.3-0.1
	c0.1-0.1,0.1-0.2,0.1-0.3v-7.7c0-0.1,0-0.2,0.1-0.3c0.1-0.1,0.2-0.1,0.3-0.1h2.2c0.1,0,0.2,0,0.3-0.1c0.1-0.1,0.1-0.2,0.1-0.3V151.9
	z M253,160.3c0-0.1,0-0.2-0.1-0.3c-0.1-0.1-0.2-0.1-0.3-0.1h-4.6c-0.1,0-0.2,0-0.3-0.1c-0.1-0.1-0.1-0.2-0.1-0.3v-7.7
	c0-0.1,0-0.2-0.1-0.3c-0.1-0.1-0.2-0.1-0.3-0.1h-2.3c-0.1,0-0.2,0-0.3,0.1c-0.1,0.1-0.1,0.2-0.1,0.3v10.5c0,0.1,0,0.2,0.1,0.3
	c0.1,0.1,0.2,0.1,0.3,0.1h7.7c0.1,0,0.2,0,0.3-0.1c0.1-0.1,0.1-0.2,0.1-0.3V160.3z M262.6,151.9c0-0.1,0-0.2-0.1-0.3
	c-0.1-0.1-0.2-0.1-0.3-0.1h-7.8c-0.1,0-0.2,0-0.3,0.1c-0.1,0.1-0.1,0.2-0.1,0.3v10.5c0,0.1,0,0.2,0.1,0.3c0.1,0.1,0.2,0.1,0.3,0.1
	h7.8c0.1,0,0.2,0,0.3-0.1c0.1-0.1,0.1-0.2,0.1-0.3v-2.1c0-0.1,0-0.2-0.1-0.3c-0.1-0.1-0.2-0.1-0.3-0.1h-4.8c-0.1,0-0.2,0-0.3-0.1
	c-0.1-0.1-0.1-0.2-0.1-0.3V159c0-0.1,0-0.2,0.1-0.3c0.1-0.1,0.2-0.1,0.3-0.1h4.2c0.1,0,0.2,0,0.3-0.1s0.1-0.2,0.1-0.3v-2.1
	c0-0.1,0-0.2-0.1-0.3c-0.1-0.1-0.2-0.1-0.3-0.1h-4.2c-0.1,0-0.2,0-0.3-0.1c-0.1-0.1-0.1-0.2-0.1-0.3v-0.6c0-0.1,0-0.2,0.1-0.3
	c0.1-0.1,0.2-0.1,0.3-0.1h4.8c0.1,0,0.2,0,0.3-0.1c0.1-0.1,0.1-0.2,0.1-0.3V151.9z M273.4,159.5c0-0.7-0.1-1.2-0.4-1.6
	c-0.3-0.4-0.6-0.8-1-1.1c-0.4-0.3-0.8-0.5-1.2-0.6s-0.8-0.2-1.2-0.3c-0.1,0-0.2,0-0.5-0.1c-0.3,0-0.5-0.1-0.8-0.2s-0.5-0.2-0.7-0.3
	s-0.3-0.2-0.3-0.4s0-0.3,0.1-0.3c0.1-0.1,0.2-0.1,0.3-0.2s0.3-0.1,0.4-0.1c0.1,0,0.3,0,0.4,0c0.4,0,0.8,0.1,1.2,0.2s0.9,0.4,1.5,0.7
	c0.1,0.1,0.2,0.1,0.3,0.1c0.1,0,0.2-0.1,0.2-0.2l1.2-1.7c0.1-0.1,0.1-0.2,0.1-0.3c0-0.1-0.1-0.2-0.1-0.3c-0.6-0.5-1.3-0.9-2-1.1
	c-0.7-0.3-1.5-0.4-2.3-0.4c-0.5,0-1,0.1-1.5,0.2c-0.5,0.1-1,0.3-1.4,0.6c-0.4,0.3-0.8,0.6-1.1,1.1c-0.3,0.5-0.4,1-0.4,1.8
	c0,0.5,0.1,0.9,0.2,1.3c0.1,0.4,0.3,0.7,0.6,0.9c0.2,0.3,0.5,0.5,0.8,0.6s0.6,0.3,0.9,0.4c0.3,0.1,0.6,0.2,0.9,0.2
	c0.3,0.1,0.6,0.1,0.8,0.1c0.2,0.1,0.5,0.1,0.7,0.1c0.2,0,0.4,0.1,0.6,0.1c0.2,0.1,0.3,0.1,0.4,0.2s0.2,0.2,0.2,0.3
	c0,0.3-0.1,0.5-0.4,0.6c-0.2,0.1-0.6,0.2-1,0.2c-0.5,0-1-0.1-1.5-0.3c-0.5-0.2-1.1-0.5-1.6-0.8c-0.1-0.1-0.2-0.1-0.3,0
	s-0.2,0.1-0.2,0.2l-1.2,1.7c-0.1,0.1-0.1,0.2-0.1,0.3c0,0.1,0.1,0.2,0.1,0.3c0.3,0.2,0.6,0.5,0.9,0.7c0.3,0.2,0.7,0.4,1.1,0.5
	s0.8,0.3,1.3,0.4c0.5,0.1,1,0.1,1.5,0.1c0.7,0,1.3-0.1,1.8-0.2s1-0.4,1.4-0.6c0.4-0.3,0.7-0.7,0.9-1.1S273.4,160.1,273.4,159.5z
	 M207.6,158.4H206c-0.1,0-0.2,0-0.3,0.1c-0.1,0.1-0.1,0.2-0.1,0.3v0.9c0,0.1,0,0.2,0.1,0.3c0.1,0.1,0.2,0.1,0.3,0.1h1.7
	c0.2,0,0.4-0.1,0.5-0.2c0.2-0.2,0.2-0.3,0.2-0.5c0-0.2-0.1-0.4-0.2-0.6S207.9,158.4,207.6,158.4z M194.6,12.9
	c-0.1,1.1,1.4,1.9,1.8,1.9c0.4,0,0.5-0.2,0.4-0.3c0,0-0.3,0.1-0.3-0.4c0.1-1.9,3.2-8,5.5-10.4l1.5,0.3c-1.7,2.4-4.1,6.4-4,7.9
	c0,0.6,0.7,1.5,1.4,1.6c0.4,0,0.4-0.3,0.4-0.4c0.9-2.5,3.9-4.9,4.9-5.8c-1.5,1.7-2.4,3.9-2.4,4.3c0,1.1,1.4,1.9,2,1.8
	c0.7,0,3.2-3.2,3.5-3.6c0.7-0.9,0.7-1.8,0-1.1c-0.2,0.2-3.1,3-3.2,2.8c-0.2-0.4,1.8-3.7,2-4.4c0.2-0.6-0.7-1.1-1.1-1.1
	c-0.8,0-3,1.9-4.2,3.4c0.8-1.6,1.9-3.5,2.9-5.1c2.3,0,3.2-0.9,3.3-1.8c0.1-0.8-0.3-1.8-1.4-1.8c-1.3,0-2.2,1-2.9,2
	c-3.4-0.7-9.1-3.3-12-2.5c-1.7,0.5-1.8,3.7-0.9,3.4c0.4-0.1-0.2-0.8,0.7-1c2-0.7,5.4,0,8.3,0.7C198.2,5.7,194.7,11,194.6,12.9z
	 M207.8,1.9c0.2,0.1,0.2,0.8-1.3,0.9C207,2.1,207.5,1.8,207.8,1.9z M215.6,8.7c-0.9,1-3.7,3.9-5,3c-0.6-0.4-0.5-1.2-0.3-1.8
	c0.2,0.3,0.9,0.8,1.4,0.7c1.6-0.1,2.7-2.2,2.8-3.1c0.1-1-1.5-2.2-2.4-2.1c-1.5,0.2-3.9,2.9-3.9,5.2c0,1.3,1.8,2.6,2.6,2.6
	c2,0.1,4.4-3,5.4-4.1C216.6,8.6,216.5,7.8,215.6,8.7z M213,6.9c0.5,0-1.2,3.1-2.4,2.5C210.8,8.9,212.3,7,213,6.9z M168.8,98.3
	c-2,2.5-18.3,22.8-22.7,22.8c-3.9,0.4-12.9-4.5-12.9-11.5c0-2.8,8-16.8,15.1-25.5c-4.2,3.4-21.7,16.1-30.7,34.9
	c0,0.6-0.1,2.7-2.7,2.7c-4.1-0.4-10.2-7.3-9.8-10.9c0-0.3,0.1-0.6,0.1-0.9c-5.4,6.1-11.5,11.9-15,11.6c-5-0.4-10.2-6.3-10.6-11.8
	c-1.8,2.2-6.9,11.2-11.1,11.6c-4.3,0.8-13-6.6-13.4-12.6c0-0.2,0-0.3,0-0.5c-8.7,9.4-21.7,19.1-33.9,18.6
	c-6.3-0.4-20.6-10.1-21.3-22C-1.6,79.8,32,43.6,50.9,43.1c7.8-0.4,13.3,7.3,13.7,12.2c0.4,6.4-11.9,22.3-21,24.2
	c-3.5,0.7-4.3,0.6-2-1.8c6.3-6,15.8-24.7,12.5-25.1C40.4,51.1-0.6,104,21.2,115.4c10.6,5.6,31-11.2,39.2-22.3
	c0.1-0.2,0.3-0.3,0.4-0.5C67.5,81.9,79,71.5,90.3,71.5c3.6,0,8.4,3.2,9.5,5.9c5.2,1.1,9.7,4.8,8.5,6.3c-3.4,4.5-16.4,24.1-14.1,25.2
	c1.1,0.7,10-6.9,18.3-15.6c5.1-8.7,11.6-17.2,14.9-20.6c1.4-1.4,10.9,1.8,9.8,4.5c-0.7,2-7.7,13-10.6,19
	c7.8-9.7,26.5-23.2,29.8-23.7c2.8-0.4,9.1,4.8,6.9,8.1c-1.7,2.1-15.3,25.6-15.3,28.3c0,1.5,19.7-16.7,21.4-18.3
	C173.9,86.1,173.4,92.1,168.8,98.3z M96.1,80.9c-12.7-2.8-31.4,27.3-25.8,27.3C74.1,108.2,95.6,81.5,96.1,80.9z M178.3,80.5
	c2.2-0.7,13.6-9.7,13.6-15.3c0-2-3.9-5.9-9-5.9c-2.2,0-2.5,0.7-2.9,1.7c-0.4,1.7-1.3,8.3-5.7,15.7C173.9,77.6,174.1,81.6,178.3,80.5
	z M305.5,71.4c6.4,1.1,11.9-5.2,13.2-7.7c2.7-6.7-8.7-9.5-12.3-8.4C301.9,56.4,298.1,68.4,305.5,71.4z M405.1,98.3
	c-2,2.5-18.3,22.8-22.7,22.8c-3.9,0.4-12.9-4.5-12.9-11.5c0-2.8,8-16.8,15.1-25.5c-4.2,3.4-21.7,16.1-30.7,34.9
	c0,0.6-0.1,2.7-2.7,2.7c-4.1-0.4-10.2-7.3-9.8-10.9c0.2-2.1,0.9-4.5,1.9-7c-1.7,0.6-3.3,0.7-4.6,0.7c-4.1,5.5-9.7,9.1-14.1,9.5
	c-0.8,0.1-2.2-0.1-4.2-0.7c-0.6,1.1-1.3,2.2-2.2,3.4c4.6-0.4,9.4,0.1,13.2,2.2c5.6,4.1,5.6,13.3,4.9,16.7
	c-2.2,9.8-26.6,21.4-40.1,13.6c-4.9-2.9-7-16.8-4.2-17.9c1-0.4,0.8,0.8,1.5,2c5.6,11.1,37.4,1.1,36.8-3.5
	c-0.7-4.3-10.1-4.3-17.4-1.7c-2.9,1.1-3.5,2.1-5.3,3.4c-1.8,0.7-8.1-5-6.3-9.4c0.4-0.7,2.1-1.7,5-2.7c3.2-2.7,6.4-5.3,8.3-8.5
	c-2.8-1.6-5.2-3.9-6.1-6.7c-5.9,7.2-14.9,17.4-17.7,17.4c-3.9,0.4-12.9-5.9-12.9-12.9c0-0.2,0-0.4,0.1-0.8
	c-5.8,6.8-12.9,14-16.8,13.7c-5-0.4-10.2-6.3-10.6-11.8c-1.8,2.2-6.9,11.2-11.1,11.6c-4.3,0.8-13-6.6-13.4-12.6c0-0.9,0-1.9,0.2-2.9
	c-3.6,3.4-7.6,6.9-11.1,9.6c-3.8,4.5-7.6,7.4-10.4,6.4c-2.8-0.7-7.4-5.2-7.4-9.8c0.4-2.7,2-2.5,6.3-3.6c6.9-7.6,14.8-24.8,13.7-28.6
	c-1.7-5.7-35.6,48.7-32.8,55.9c0.6,1.5-0.6,2.8-2.1,2.4c-6.9-1.1-10.8-7.8-10.1-11.2c2.2-15.3,23.8-52.7,28.9-58.7
	c1.3-1.7,9.7,1.7,8.5,4.2c-2.5,5.2-4.2,8-8.3,15.8c7.1-9.5,11.9-14.7,17.4-14.7c5.7,0,9.8,5.7,9.8,9.7c0,5.5-4.1,15.1-5.9,18.5
	c3-3,5.9-5.8,8.2-8c6.5-11,18.5-22.1,30.1-22.1c3.6,0,8.4,3.2,9.5,5.9c5.2,1.1,9.7,4.8,8.5,6.3c-3.4,4.5-16.4,24.1-14.1,25.2
	c1.1,0.7,10.2-7.1,18.6-16c0.6-0.6,1.1-1.1,1.6-1.5c3.1-5.5,7-11.4,11.3-15.8c4.9-1.8,10.8,2.1,9,5c-2.1,3.8-14,24.9-12.9,27.2
	c0.8,1.6,10.4-7.2,15.9-12.5c2.5-11.7,13.6-23,23.3-22.6c2.1,0.1,5.3,1.1,7.6,2.7c3.4-3.4,5-12.2,5-15.1c-0.4-1.5-0.6-2.1-2.1-2.5
	c-0.7,0-0.6-1.4,0.7-1.8c2.8-1.5,12,7.1,11.6,12.9c0,3.4-7.7,9.9-14,14.4c2.2,1,3.6,4.1,3.8,6.7c0.1,2.5-0.6,5.3-2.1,8.5
	c1.9-1,3.8-2.9,6.6-5.7c5.1-8.5,11.4-16.6,14.5-20c1.4-1.4,10.9,1.8,9.8,4.5c-0.7,2-7.7,13-10.6,19c7.8-9.7,26.5-23.2,29.8-23.7
	c2.8-0.4,9.1,4.8,6.9,8.1c-1.7,2.1-15.3,25.6-15.3,28.3c0,1.5,19.7-16.7,21.4-18.3C410.1,86.1,409.7,92.1,405.1,98.3z M267.1,80.9
	c-12.7-2.8-31.4,27.3-25.8,27.3C245.2,108.2,266.6,81.5,267.1,80.9z M334.2,85.1c-1-0.3-1.8-0.8-2.4-1.8c-8.8,5.9-13.4,19.2-11.3,22
	c1.8,2.7,8.5-1.1,13-6.7C332.4,94.5,331.6,89,334.2,85.1z M139.7,188.2c-0.5,0-1,1-1,1.4c0,0.1,0.1,0.2,0.3,0.2h4.3
	c0.4,0,1.2-1,1.2-1.4c0-0.2-0.1-0.3-0.3-0.3C144.1,188.1,139.8,188.2,139.7,188.2z M151.2,192.9c-0.1,1.1,1.4,1.9,1.8,1.9
	c0.4,0,0.5-0.2,0.4-0.3c0,0-0.3,0.1-0.3-0.4c0.1-2,3.9-9,6.4-11.6c1.7,0.1,3.2,0,4-0.3c1.2-0.7,0.7-1.5,0.4-1.4
	c-0.2,0,0,0.2-0.1,0.3c-0.3,0.3-2.3,0.1-3.8,0c-2.4-0.2-8.4-0.3-9.5,0.5c-0.8,0.6-0.6,2.6-0.3,2.9c0.4,0.5,1.2,0.2,1.3,0
	c0.2-0.3-0.9-0.1-0.7-0.4c0.6-1,4.1-1.6,6.8-1.7C155.2,185.1,151.3,191.1,151.2,192.9z M165.5,189c-1.3,1.4-2.7,2.6-2.9,2.5
	c-0.3-0.2,1.7-3.2,2.2-3.9c0.2-0.2-0.5-0.8-1.3-1c-0.2-0.4-0.9-0.9-1.5-0.9c-2.7,0-5.5,3.9-5.4,5.8c0.1,0.9,1.4,2.1,2.1,2
	c0.7-0.1,1.4-1.5,1.7-1.8c0.1,0.8,0.9,1.8,1.7,1.8c1.1,0.1,3.7-3.5,4-3.9C166.6,188.6,166.3,188.1,165.5,189z M158.9,191.4
	c-0.9,0,2-4.7,4-4.2C162.8,187.2,159.5,191.4,158.9,191.4z M176.3,186.9c0.2,0,0.2,0,0.2-0.1c0.1-0.3-0.3-1.3-0.7-1.3
	c-0.3,0-0.3,0-0.7,0c0.6-1.1,1-1.7,1.1-1.9c0.3-0.5-0.7-0.9-1.5-0.7c-0.6,0.8-1.2,1.6-2,2.7l-1.4,0.2c-1.1,0.3-1,1-0.7,1.1
	c0.1,0,1,0,1.3,0c-0.6,0.9-1.1,1.8-1.5,2.7l-0.4,0.3c-0.3-1-1.2-2.1-1.2-2.7c0.3-0.4,0.6-0.5,0.6-0.8c0.1-0.6-0.9-1.2-1.3-0.9
	c-0.5,0.4-0.7,0.8-0.8,1.3c-0.7,1-2.5,2.8-2.6,2.9c-1.1,1.5-0.2,4.1,2.2,4c1-0.1,2.1-0.9,3-2c0.1,0.9,1.2,1.7,1.7,1.8
	c1.2,0.1,3.6-3.4,4-3.8c0.7-1,0.5-1.5-0.2-0.8c-0.3,0.3-3,3.3-3.2,2.8c-0.2-0.5,0.9-2.8,2-4.8C175.1,186.8,175.8,186.8,176.3,186.9z
	 M167.5,191.8c-1,0.3-1.8-1.1-1.5-2.1l1.4-1.5C167.6,189.9,168.4,191.5,167.5,191.8z M182.1,188.8c-0.9,1-3.7,3.9-5,3
	c-0.6-0.4-0.5-1.2-0.3-1.8c0.2,0.3,0.9,0.8,1.4,0.7c1.6-0.1,2.7-2.2,2.8-3.1c0.1-1-1.5-2.2-2.4-2.1c-1.5,0.2-3.9,2.9-3.9,5.2
	c0,1.3,1.8,2.6,2.6,2.6c2,0.1,4.4-3,5.4-4.1C183,188.7,182.9,187.8,182.1,188.8z M179.4,186.9c0.5,0-1.2,3.1-2.4,2.5
	C177.2,189,178.8,187,179.4,186.9z M192.8,186.9c1.4-0.3,3.3-2.8,3.3-3.8c-0.1-0.8-0.9-2-2.1-1.9c-2.9,0.1-8.2,5.7-7.9,9.6
	c0.1,1.9,2.3,3.4,3.3,3.4c2.7,0.1,5.6-2.9,6.5-4.5c0.2-0.4,0.6-2-0.4-0.7c-1.3,1.7-4.4,4.3-6.1,3.5c-3.4-1.8,3-10,5.1-9.8
	c0.5,0.1-1,3-1.9,3.9C192.1,187,192.3,187,192.8,186.9z M204.2,188.7c-0.2,0.2-3.1,3-3.2,2.8c-0.2-0.3,1.7-3.7,2-4.4
	c0.2-0.6-0.7-1.1-1.1-1.1c-0.8,0-3,1.9-4.2,3.4c1-2.1,2.1-4.1,3.2-5.8c0.3-0.4-1.1-1.1-1.5-0.7c-0.9,0.9-4.9,7-4.8,9
	c0,0.6,0.7,1.5,1.4,1.6c0.4,0,0.4-0.3,0.4-0.4c0.9-2.3,3.6-4.7,4.6-5.6c-1,1.1-2.1,3.7-2.1,4.1c0,1.1,1.4,1.9,2,1.8
	c0.7,0,3.2-3.2,3.5-3.6C204.9,188.9,204.8,188,204.2,188.7z M211.9,189c-1.3,1.4-2.7,2.6-2.9,2.5c-0.3-0.2,1.7-3.2,2.2-3.9
	c0.2-0.2-0.5-0.8-1.3-1c-0.2-0.4-0.9-0.9-1.5-0.9c-2.7,0-5.5,3.9-5.4,5.8c0.1,0.9,1.4,2.1,2.1,2c0.7-0.1,1.4-1.5,1.7-1.8
	c0.1,0.8,0.9,1.8,1.7,1.8c1.1,0.1,3.7-3.5,4-3.9C213,188.6,212.7,188.1,211.9,189z M205.3,191.4c-0.9,0,2-4.7,4-4.2
	C209.2,187.2,205.9,191.4,205.3,191.4z M219.1,183.7c0.1-0.5-1-1.7-2-1.5c-1.5,0.2-6.3,7.4-6.3,9.7c0,1.4,1.9,2.6,2.7,2.6
	c0.9-0.1,2.5-1.9,3.7-3.4c0.3,1.2,1.9,2.3,2.6,2.3c1.3-0.1,3.6-2.8,4.4-4c0.4-0.5,0.5-1.7-0.7-0.3c-1,1.2-3.1,2.9-3.9,2.7
	c-0.5-0.2-0.5-0.9-0.3-1.8c2-1,5.3-4.2,5.6-6.3c0.1-0.5-1-1.7-2-1.5c-1.3,0.2-4.6,4.5-5.6,7.3c-1.2,1.4-3.4,3.7-4.1,3.4
	c-0.6-0.2-0.5-1.5,0.2-2.9C215.5,189,218.8,185.8,219.1,183.7z M217.8,183.4c0.8,0-1.6,3.2-3.5,4.8
	C215.5,185.8,217.3,183.4,217.8,183.4z M223.6,183.4c0.8,0-1.7,3.3-3.6,4.9C221.1,186,223.1,183.4,223.6,183.4z M230.3,188.8
	c-0.9,1-3.7,3.9-5,3c-0.6-0.4-0.5-1.2-0.3-1.8c0.2,0.3,0.9,0.8,1.4,0.7c1.6-0.1,2.7-2.2,2.8-3.1c0.1-1-1.5-2.2-2.4-2.1
	c-1.5,0.2-3.9,2.9-3.9,5.2c0,1.3,1.8,2.6,2.6,2.6c2,0.1,4.4-3,5.4-4.1C231.2,188.7,231.1,187.8,230.3,188.8z M227.6,186.9
	c0.5,0-1.2,3.1-2.4,2.5C225.4,189,227,187,227.6,186.9z M238.9,188.6c-0.3,0.3-3.3,3.1-3.3,2.9c0-0.4,2.1-4.1,2.4-4.4
	c0.3-0.5-0.6-1.3-1.1-1.3c-0.5,0.1-3.4,2.2-4.6,3.7c0.5-0.9,1.5-2.7,1.7-3c0.2-0.4-1.3-0.9-1.5-0.7c-0.9,0.9-3.3,4.2-3.4,5.9
	c-0.1,0.6,0.9,1.6,1.5,1.7c0.4,0,0.4-0.3,0.4-0.4c1.4-2.9,4.1-4.9,4.8-5.4c-1.1,1.4-2.4,3.5-2.4,4c0,1.1,1.4,1.9,2,1.8
	c0.7,0,3.2-3.2,3.5-3.6C239.5,188.8,239.6,187.9,238.9,188.6z M236.3,197.7c2.1,1.2,5.9-0.6,6.2-2.1c0.1-0.5,0.1-2-0.8-2.6
	c-0.6-0.3-1.3-0.4-2-0.3c0.2-0.2,0.3-0.3,0.3-0.5c0.3,0.1,0.5,0.1,0.7,0.1c0.7-0.1,1.6-0.6,2.2-1.5c0.5,0,1.2-0.1,2-1.2
	c0.3-0.4,0-1-0.1-0.9c-0.6,0.6-1,1-1.3,1.2c0.2-0.5,0.3-0.9,0.3-1.3c0-0.4-0.2-0.9-0.6-1c1-0.7,2.2-1.7,2.2-2.2
	c0.1-0.9-1.4-2.2-1.8-2c-0.2,0.1-0.2,0.3-0.1,0.3c0.2,0.1,0.3,0.2,0.3,0.4c0,0.5-0.3,1.8-0.8,2.4c-0.3-0.2-0.8-0.4-1.2-0.4
	c-1.8-0.1-4,2.5-3.7,4.7c0.1,0.5,0.5,1,1,1.3c-0.3,0.5-0.8,0.9-1.3,1.3c-0.5,0.2-0.7,0.3-0.8,0.4c-0.3,0.7,0.7,1.6,1,1.5
	c0.3-0.2,0.4-0.3,0.8-0.5c1.1-0.4,2.6-0.4,2.7,0.3c0.1,0.7-4.9,2.3-5.7,0.5c-0.1-0.2-0.1-0.4-0.2-0.3
	C235.2,195.1,235.5,197.3,236.3,197.7z M242.1,189.9c-0.7,0.9-1.7,1.5-2,1c-0.3-0.4,0.4-2.5,1.8-3.4c0.1,0.2,0.2,0.2,0.4,0.3
	C241.8,188.4,241.9,189.2,242.1,189.9z M251.1,188.8c-0.9,1-3.7,3.9-5,3c-0.6-0.4-0.5-1.2-0.3-1.8c0.2,0.3,0.9,0.8,1.4,0.7
	c1.6-0.1,2.7-2.2,2.8-3.1c0.1-1-1.5-2.2-2.4-2.1c-1.5,0.2-3.9,2.9-3.9,5.2c0,1.3,1.8,2.6,2.6,2.6c2,0.1,4.4-3,5.4-4.1
	C252.1,188.7,252,187.8,251.1,188.8z M248.5,186.9c0.5,0-1.2,3.1-2.4,2.5C246.3,189,247.8,187,248.5,186.9z M257.9,188.2
	c-0.5,0-1,1-1,1.4c0,0.1,0.1,0.2,0.3,0.2h4.3c0.4,0,1.2-1,1.2-1.4c0-0.2-0.1-0.3-0.3-0.3C262.4,188.1,258.1,188.2,257.9,188.2z"/>
</svg>
